<svg width="150" height="150" viewBox="0 0 150 150" fill="none" xmlns="http://www.w3.org/2000/svg">
<path d="M128.125 15.625H21.875L31.25 121.875L75 134.375L118.75 121.875L128.125 15.625Z" fill="url(#paint0_linear_321_16)"/>
<path d="M75 25V124.688L110 114.688L117.812 25H75Z" fill="#BEEBF5"/>
<path d="M103.438 40.625H75V53.125H90.3127L89.3752 65.6251H75V78.1252H88.7498L87.8123 92.1877L75 96.5625V109.687L99.6878 101.563L101.875 65.6251L103.438 40.625Z" fill="white"/>
<path d="M75 40.625V53.125H47.1875L46.25 40.625H75ZM60.625 65.6251L61.25 78.1252H75V65.6251H60.625ZM61.875 84.375H49.375L50.3125 101.563L75 109.687V96.5625L62.1875 92.1877L61.875 84.375Z" fill="#EEEEEE"/>
<defs>
<linearGradient id="paint0_linear_321_16" x1="74.9999" y1="15.625" x2="74.9999" y2="134.375" gradientUnits="userSpaceOnUse">
<stop stop-color="#078EAC"/>
<stop offset="1" stop-color="#BEEBF5"/>
</linearGradient>
</defs>
</svg>
