<svg width="30" height="30" viewBox="0 0 30 30" fill="none" xmlns="http://www.w3.org/2000/svg">
<rect width="30" height="30" fill="black"/>
<path d="M7.08988 7.08008C6.15176 7.08008 5.38434 7.96695 5.37988 9.0532C5.37988 9.0532 5.37988 9.05492 5.37988 9.05664C5.37988 9.05836 5.37988 9.05836 5.37988 9.06008V20.9401C5.37988 22.028 6.15027 22.9201 7.08988 22.9201H21.9099C22.8495 22.9201 23.6199 22.028 23.6199 20.9401V9.06008C23.6199 9.05836 23.6199 9.05836 23.6199 9.05664C23.6199 9.05492 23.6199 9.0532 23.6199 9.0532C23.6154 7.96695 22.848 7.08008 21.9099 7.08008H7.08988ZM8.07848 7.96008H20.9228L14.4999 13.1438L8.07848 7.96008ZM6.81379 8.01164L14.4999 14.2163L22.1875 8.01164C22.5764 8.14742 22.8569 8.55648 22.8599 9.05492C22.8584 9.14773 22.7768 9.33336 22.658 9.48289C22.5378 9.63414 22.4205 9.72867 22.4205 9.72867L22.419 9.73211L14.4999 16.2221L6.58074 9.73211L6.57926 9.72867C6.57926 9.72867 6.46199 9.63414 6.34176 9.48289C6.22301 9.33336 6.14137 9.14773 6.13988 9.05492C6.14285 8.55648 6.4234 8.14742 6.81379 8.01164ZM6.13988 10.4471L6.14285 10.4505L6.14582 10.4523V10.454L7.27988 11.3821V22.0401H7.08988C6.56145 22.0401 6.13988 21.552 6.13988 20.9401V10.4471ZM22.8599 10.4471V20.9401C22.8599 21.552 22.4383 22.0401 21.9099 22.0401H21.7199V11.3821L22.8539 10.454V10.4523L22.8599 10.4471ZM8.03988 12.0043L14.4999 17.298L20.9599 12.0043V22.0401H8.03988V12.0043Z" fill="url(#paint0_linear_321_32)"/>
<defs>
<linearGradient id="paint0_linear_321_32" x1="14.4999" y1="7.08008" x2="14.4999" y2="22.9201" gradientUnits="userSpaceOnUse">
<stop stop-color="#078EAC"/>
<stop offset="1" stop-color="#BEEBF5"/>
</linearGradient>
</defs>
</svg>
