<svg width="150" height="150" viewBox="0 0 150 150" fill="none" xmlns="http://www.w3.org/2000/svg">
<g clip-path="url(#clip0_351_6)">
<path fill-rule="evenodd" clip-rule="evenodd" d="M75 0C116.422 0 150 34.4245 150 76.897C150 110.864 128.535 139.68 98.7525 149.857C94.95 150.615 93.6 148.213 93.6 146.166C93.6 143.631 93.69 135.351 93.69 125.061C93.69 117.891 91.29 113.211 88.5975 110.826C105.3 108.921 122.85 102.418 122.85 72.8833C122.85 64.4833 119.94 57.6287 115.125 52.2437C115.905 50.3012 118.477 42.4796 114.39 31.8896C114.39 31.8896 108.105 29.8292 93.7875 39.7742C87.795 38.0717 81.375 37.2151 75 37.1851C68.625 37.2151 62.2125 38.0717 56.2275 39.7742C41.895 29.8292 35.595 31.8896 35.595 31.8896C31.5225 42.4796 34.095 50.3012 34.8675 52.2437C30.075 57.6287 27.1425 64.4833 27.1425 72.8833C27.1425 102.343 44.655 108.946 61.3125 110.889C59.1675 112.809 57.225 116.196 56.55 121.168C52.275 123.133 41.415 126.534 34.725 114.781C34.725 114.781 30.7575 107.393 23.2275 106.853C23.2275 106.853 15.915 106.756 22.7175 111.526C22.7175 111.526 27.63 113.888 31.0425 122.776C31.0425 122.776 35.445 136.501 56.31 131.851C56.3475 138.278 56.415 144.336 56.415 146.166C56.415 148.198 55.035 150.577 51.2925 149.865C21.4875 139.702 0 110.872 0 76.897C0 34.4245 33.585 0 75 0Z" fill="url(#paint0_linear_351_6)"/>
</g>
<defs>
<linearGradient id="paint0_linear_351_6" x1="75" y1="0" x2="75" y2="150" gradientUnits="userSpaceOnUse">
<stop stop-color="#078EAC"/>
<stop offset="1" stop-color="#BEEBF5"/>
</linearGradient>
<clipPath id="clip0_351_6">
<rect width="150" height="150" fill="white"/>
</clipPath>
</defs>
</svg>
