<svg width="533" height="38" viewBox="0 0 533 38" fill="none" xmlns="http://www.w3.org/2000/svg">
<path d="M15.552 2.304C17.792 2.304 19.776 2.656 21.504 3.36C23.264 4.032 24.896 5.008 26.4 6.288L22.704 10.128C21.52 9.232 20.4 8.576 19.344 8.16C18.32 7.744 17.152 7.536 15.84 7.536C13.312 7.536 11.264 8.544 9.696 10.56C8.16 12.544 7.392 15.584 7.392 19.68C7.392 24 7.984 27.104 9.168 28.992C10.384 30.848 12.256 31.776 14.784 31.776C16.608 31.776 18.256 31.376 19.728 30.576V22.464H15.072L14.352 17.328H26.592V33.696C24.864 34.752 22.992 35.584 20.976 36.192C18.992 36.768 16.976 37.056 14.928 37.056C10.032 37.056 6.32 35.584 3.792 32.64C1.264 29.696 0 25.36 0 19.632C0 16.016 0.688 12.896 2.064 10.272C3.44 7.648 5.296 5.664 7.632 4.32C10 2.976 12.64 2.304 15.552 2.304Z" fill="#FFFEFE"/>
<path d="M53.118 36.288H47.214L46.878 32.88C45.982 34.288 44.894 35.344 43.614 36.048C42.334 36.72 40.846 37.056 39.15 37.056C36.846 37.056 35.086 36.368 33.87 34.992C32.654 33.584 32.046 31.632 32.046 29.136V10.848H38.862V28.272C38.862 29.616 39.086 30.576 39.534 31.152C39.982 31.696 40.686 31.968 41.646 31.968C43.47 31.968 45.022 30.864 46.302 28.656V10.848H53.118V36.288Z" fill="#FFFEFE"/>
<path d="M68.2965 10.08C71.8805 10.08 74.9525 11.104 77.5125 13.152L74.9205 17.04C72.7765 15.696 70.6645 15.024 68.5845 15.024C67.4645 15.024 66.6005 15.232 65.9925 15.648C65.3845 16.064 65.0805 16.624 65.0805 17.328C65.0805 17.84 65.2085 18.272 65.4645 18.624C65.7525 18.976 66.2645 19.312 67.0005 19.632C67.7685 19.952 68.9045 20.336 70.4085 20.784C73.0965 21.52 75.0965 22.512 76.4085 23.76C77.7205 24.976 78.3765 26.656 78.3765 28.8C78.3765 30.496 77.8805 31.968 76.8885 33.216C75.9285 34.464 74.6165 35.424 72.9525 36.096C71.2885 36.736 69.4325 37.056 67.3845 37.056C65.2405 37.056 63.2885 36.736 61.5285 36.096C59.7685 35.424 58.2645 34.512 57.0165 33.36L60.3765 29.616C62.5205 31.28 64.7925 32.112 67.1925 32.112C68.4725 32.112 69.4805 31.872 70.2165 31.392C70.9845 30.88 71.3685 30.192 71.3685 29.328C71.3685 28.656 71.2245 28.128 70.9365 27.744C70.6485 27.36 70.1205 27.008 69.3525 26.688C68.5845 26.336 67.3845 25.936 65.7525 25.488C63.1925 24.784 61.2885 23.792 60.0405 22.512C58.8245 21.2 58.2165 19.584 58.2165 17.664C58.2165 16.224 58.6325 14.928 59.4645 13.776C60.2965 12.624 61.4645 11.728 62.9685 11.088C64.5045 10.416 66.2805 10.08 68.2965 10.08Z" fill="#FFFEFE"/>
<path d="M98.0332 35.088C97.1052 35.728 96.0492 36.208 94.8652 36.528C93.7133 36.88 92.5612 37.056 91.4092 37.056C88.7852 37.024 86.8013 36.272 85.4573 34.8C84.1133 33.328 83.4413 31.168 83.4413 28.32V15.648H79.6492V10.848H83.4413V5.28L90.2572 4.464V10.848H96.1133L95.4413 15.648H90.2572V28.176C90.2572 29.392 90.4652 30.272 90.8812 30.816C91.2972 31.36 91.9373 31.632 92.8013 31.632C93.6653 31.632 94.6253 31.344 95.6813 30.768L98.0332 35.088Z" fill="#FFFEFE"/>
<path d="M119.976 29.232C119.976 30.224 120.12 30.96 120.408 31.44C120.696 31.888 121.176 32.224 121.848 32.448L120.408 36.96C118.904 36.832 117.672 36.48 116.712 35.904C115.784 35.328 115.064 34.432 114.552 33.216C112.888 35.776 110.344 37.056 106.92 37.056C104.392 37.056 102.376 36.336 100.872 34.896C99.4 33.424 98.664 31.52 98.664 29.184C98.664 26.4 99.672 24.272 101.688 22.8C103.704 21.328 106.6 20.592 110.376 20.592H113.304V19.344C113.304 17.776 112.952 16.688 112.248 16.08C111.544 15.472 110.376 15.168 108.744 15.168C106.952 15.168 104.712 15.616 102.024 16.512L100.488 11.952C103.656 10.704 106.792 10.08 109.896 10.08C113.352 10.08 115.896 10.832 117.528 12.336C119.16 13.808 119.976 16.016 119.976 18.96V29.232ZM108.792 32.16C110.712 32.16 112.216 31.216 113.304 29.328V24.48H111.048C107.368 24.48 105.528 25.856 105.528 28.608C105.528 29.728 105.8 30.608 106.344 31.248C106.92 31.856 107.736 32.16 108.792 32.16Z" fill="#FFFEFE"/>
<path d="M147.203 10.848L139.043 36.288H130.931L122.627 10.848H130.019L135.059 30.96L140.195 10.848H147.203Z" fill="#FFFEFE"/>
<path d="M160.834 10.08C164.642 10.08 167.618 11.28 169.762 13.68C171.906 16.048 172.978 19.344 172.978 23.568C172.978 26.256 172.482 28.624 171.49 30.672C170.53 32.688 169.122 34.256 167.266 35.376C165.442 36.496 163.282 37.056 160.786 37.056C156.978 37.056 153.986 35.872 151.81 33.504C149.666 31.104 148.594 27.792 148.594 23.568C148.594 20.88 149.074 18.528 150.034 16.512C151.026 14.464 152.434 12.88 154.258 11.76C156.114 10.64 158.306 10.08 160.834 10.08ZM160.834 15.168C159.106 15.168 157.81 15.856 156.946 17.232C156.114 18.576 155.698 20.688 155.698 23.568C155.698 26.448 156.114 28.576 156.946 29.952C157.81 31.296 159.09 31.968 160.786 31.968C162.482 31.968 163.746 31.296 164.578 29.952C165.442 28.576 165.874 26.448 165.874 23.568C165.874 20.688 165.458 18.576 164.626 17.232C163.794 15.856 162.53 15.168 160.834 15.168Z" fill="#FFFEFE"/>
<path d="M215.08 36.288H206.008L195.448 9.936C195.736 12.208 195.96 14.352 196.12 16.368C196.312 18.352 196.408 20.688 196.408 23.376V36.288H190.024V3.072H198.904L209.656 29.472C209.016 25.184 208.696 21.248 208.696 17.664V3.072H215.08V36.288Z" fill="#FFFEFE"/>
<path d="M232.646 10.08C236.454 10.08 239.43 11.28 241.574 13.68C243.718 16.048 244.79 19.344 244.79 23.568C244.79 26.256 244.294 28.624 243.302 30.672C242.342 32.688 240.934 34.256 239.078 35.376C237.254 36.496 235.094 37.056 232.598 37.056C228.79 37.056 225.798 35.872 223.622 33.504C221.478 31.104 220.406 27.792 220.406 23.568C220.406 20.88 220.886 18.528 221.846 16.512C222.838 14.464 224.246 12.88 226.07 11.76C227.926 10.64 230.118 10.08 232.646 10.08ZM232.646 15.168C230.918 15.168 229.622 15.856 228.758 17.232C227.926 18.576 227.51 20.688 227.51 23.568C227.51 26.448 227.926 28.576 228.758 29.952C229.622 31.296 230.902 31.968 232.598 31.968C234.294 31.968 235.558 31.296 236.39 29.952C237.254 28.576 237.686 26.448 237.686 23.568C237.686 20.688 237.27 18.576 236.438 17.232C235.606 15.856 234.342 15.168 232.646 15.168Z" fill="#FFFEFE"/>
<path d="M264.181 10.08C266.421 10.08 268.166 10.768 269.414 12.144C270.662 13.488 271.285 15.36 271.285 17.76V36.288H264.47V18.912C264.47 17.536 264.23 16.576 263.75 16.032C263.302 15.456 262.613 15.168 261.685 15.168C260.725 15.168 259.846 15.472 259.046 16.08C258.278 16.656 257.525 17.536 256.789 18.72V36.288H249.973V10.848H255.878L256.405 14.064C257.461 12.752 258.614 11.76 259.862 11.088C261.142 10.416 262.581 10.08 264.181 10.08Z" fill="#FFFEFE"/>
<path d="M291.978 10.08C294.218 10.08 295.962 10.768 297.21 12.144C298.458 13.488 299.082 15.36 299.082 17.76V36.288H292.266V18.912C292.266 17.536 292.026 16.576 291.546 16.032C291.098 15.456 290.41 15.168 289.482 15.168C288.522 15.168 287.642 15.472 286.842 16.08C286.074 16.656 285.322 17.536 284.586 18.72V36.288H277.77V10.848H283.674L284.202 14.064C285.258 12.752 286.41 11.76 287.658 11.088C288.938 10.416 290.378 10.08 291.978 10.08Z" fill="#FFFEFE"/>
<path d="M327.071 22.992C327.071 23.312 327.023 24.192 326.927 25.632H311.039C311.263 27.936 311.887 29.568 312.911 30.528C313.935 31.488 315.327 31.968 317.087 31.968C318.175 31.968 319.199 31.792 320.159 31.44C321.119 31.088 322.159 30.528 323.279 29.76L326.111 33.6C323.263 35.904 320.047 37.056 316.463 37.056C312.463 37.056 309.391 35.856 307.247 33.456C305.103 31.056 304.031 27.808 304.031 23.712C304.031 21.12 304.479 18.8 305.375 16.752C306.303 14.672 307.631 13.04 309.359 11.856C311.119 10.672 313.199 10.08 315.599 10.08C319.215 10.08 322.031 11.216 324.047 13.488C326.063 15.76 327.071 18.928 327.071 22.992ZM320.303 21.072C320.303 16.848 318.783 14.736 315.743 14.736C314.335 14.736 313.231 15.264 312.431 16.32C311.663 17.344 311.199 19.024 311.039 21.36H320.303V21.072Z" fill="#FFFEFE"/>
<path d="M359.509 10.08C361.525 10.08 363.141 10.768 364.357 12.144C365.605 13.52 366.229 15.392 366.229 17.76V36.288H359.413V18.912C359.413 16.416 358.581 15.168 356.917 15.168C356.021 15.168 355.237 15.456 354.565 16.032C353.893 16.608 353.205 17.504 352.501 18.72V36.288H345.685V18.912C345.685 16.416 344.853 15.168 343.189 15.168C342.293 15.168 341.509 15.472 340.837 16.08C340.165 16.656 339.493 17.536 338.821 18.72V36.288H332.005V10.848H337.909L338.437 14.016C339.397 12.736 340.469 11.76 341.653 11.088C342.869 10.416 344.261 10.08 345.829 10.08C347.269 10.08 348.517 10.448 349.573 11.184C350.629 11.888 351.397 12.896 351.877 14.208C352.933 12.832 354.069 11.808 355.285 11.136C356.533 10.432 357.941 10.08 359.509 10.08Z" fill="#FFFEFE"/>
<path d="M400.196 10.08C402.212 10.08 403.828 10.768 405.044 12.144C406.292 13.52 406.916 15.392 406.916 17.76V36.288H400.1V18.912C400.1 16.416 399.268 15.168 397.604 15.168C396.708 15.168 395.924 15.456 395.252 16.032C394.58 16.608 393.892 17.504 393.188 18.72V36.288H386.372V18.912C386.372 16.416 385.54 15.168 383.876 15.168C382.98 15.168 382.196 15.472 381.524 16.08C380.852 16.656 380.18 17.536 379.508 18.72V36.288H372.692V10.848H378.596L379.124 14.016C380.084 12.736 381.156 11.76 382.34 11.088C383.556 10.416 384.948 10.08 386.516 10.08C387.956 10.08 389.204 10.448 390.26 11.184C391.316 11.888 392.084 12.896 392.564 14.208C393.62 12.832 394.756 11.808 395.972 11.136C397.22 10.432 398.628 10.08 400.196 10.08Z" fill="#FFFEFE"/>
<path d="M432.82 29.232C432.82 30.224 432.964 30.96 433.252 31.44C433.54 31.888 434.02 32.224 434.692 32.448L433.252 36.96C431.748 36.832 430.516 36.48 429.556 35.904C428.628 35.328 427.908 34.432 427.396 33.216C425.732 35.776 423.188 37.056 419.764 37.056C417.236 37.056 415.22 36.336 413.716 34.896C412.244 33.424 411.508 31.52 411.508 29.184C411.508 26.4 412.516 24.272 414.532 22.8C416.548 21.328 419.444 20.592 423.22 20.592H426.148V19.344C426.148 17.776 425.796 16.688 425.092 16.08C424.388 15.472 423.22 15.168 421.588 15.168C419.796 15.168 417.556 15.616 414.868 16.512L413.332 11.952C416.5 10.704 419.636 10.08 422.74 10.08C426.196 10.08 428.74 10.832 430.372 12.336C432.004 13.808 432.82 16.016 432.82 18.96V29.232ZM421.636 32.16C423.556 32.16 425.06 31.216 426.148 29.328V24.48H423.892C420.212 24.48 418.372 25.856 418.372 28.608C418.372 29.728 418.644 30.608 419.188 31.248C419.764 31.856 420.58 32.16 421.636 32.16Z" fill="#FFFEFE"/>
<path d="M450.238 10.08C451.934 10.08 453.454 10.336 454.798 10.848C456.174 11.328 457.47 12.096 458.686 13.152L455.71 17.184C454.878 16.544 454.062 16.08 453.262 15.792C452.494 15.504 451.646 15.36 450.718 15.36C447.102 15.36 445.294 18.144 445.294 23.712C445.294 26.528 445.758 28.544 446.686 29.76C447.614 30.976 448.942 31.584 450.67 31.584C451.566 31.584 452.382 31.456 453.118 31.2C453.854 30.912 454.718 30.448 455.71 29.808L458.686 34.08C456.254 36.064 453.47 37.056 450.334 37.056C447.838 37.056 445.662 36.512 443.806 35.424C441.982 34.336 440.574 32.8 439.582 30.816C438.59 28.8 438.094 26.448 438.094 23.76C438.094 21.072 438.59 18.704 439.582 16.656C440.574 14.576 441.982 12.96 443.806 11.808C445.662 10.656 447.806 10.08 450.238 10.08Z" fill="#FFFEFE"/>
<path d="M476.76 10.08C478.968 10.08 480.696 10.768 481.944 12.144C483.224 13.488 483.864 15.36 483.864 17.76V36.288H477.048V18.912C477.048 17.536 476.808 16.576 476.328 16.032C475.848 15.456 475.16 15.168 474.264 15.168C472.472 15.168 470.84 16.336 469.368 18.672V36.288H462.552V0.719999L469.368 0V13.728C470.392 12.512 471.496 11.6 472.68 10.992C473.896 10.384 475.256 10.08 476.76 10.08Z" fill="#FFFEFE"/>
<path d="M511.853 22.992C511.853 23.312 511.804 24.192 511.708 25.632H495.82C496.044 27.936 496.669 29.568 497.693 30.528C498.717 31.488 500.109 31.968 501.868 31.968C502.957 31.968 503.98 31.792 504.94 31.44C505.9 31.088 506.94 30.528 508.06 29.76L510.892 33.6C508.044 35.904 504.829 37.056 501.245 37.056C497.245 37.056 494.173 35.856 492.029 33.456C489.885 31.056 488.812 27.808 488.812 23.712C488.812 21.12 489.26 18.8 490.156 16.752C491.084 14.672 492.413 13.04 494.141 11.856C495.901 10.672 497.98 10.08 500.38 10.08C503.996 10.08 506.812 11.216 508.828 13.488C510.844 15.76 511.853 18.928 511.853 22.992ZM505.085 21.072C505.085 16.848 503.565 14.736 500.525 14.736C499.117 14.736 498.012 15.264 497.212 16.32C496.444 17.344 495.98 19.024 495.82 21.36H505.085V21.072Z" fill="#FFFEFE"/>
<path d="M529.938 10.128C530.706 10.128 531.554 10.256 532.482 10.512L531.33 17.088C530.434 16.864 529.682 16.752 529.074 16.752C527.57 16.752 526.402 17.28 525.57 18.336C524.738 19.392 524.082 20.992 523.602 23.136V36.288H516.786V10.848H522.69L523.314 15.792C523.922 14 524.802 12.608 525.954 11.616C527.138 10.624 528.466 10.128 529.938 10.128Z" fill="#FFFEFE"/>
</svg>
