<svg width="186" height="35" viewBox="0 0 186 35" fill="none" xmlns="http://www.w3.org/2000/svg">
<path d="M16.376 0.0159998C18.616 0.0159998 20.6 0.367999 22.328 1.072C24.088 1.744 25.72 2.72 27.224 4L23.528 7.84C22.344 6.944 21.224 6.288 20.168 5.872C19.144 5.456 17.976 5.248 16.664 5.248C14.136 5.248 12.088 6.256 10.52 8.272C8.984 10.256 8.216 13.296 8.216 17.392C8.216 21.712 8.808 24.816 9.992 26.704C11.208 28.56 13.08 29.488 15.608 29.488C17.432 29.488 19.08 29.088 20.552 28.288V20.176H15.896L15.176 15.04H27.416V31.408C25.688 32.464 23.816 33.296 21.8 33.904C19.816 34.48 17.8 34.768 15.752 34.768C10.856 34.768 7.144 33.296 4.616 30.352C2.088 27.408 0.824 23.072 0.824 17.344C0.824 13.728 1.512 10.608 2.888 7.984C4.264 5.36 6.12 3.376 8.456 2.032C10.824 0.688 13.464 0.0159998 16.376 0.0159998ZM53.942 34H48.038L47.702 30.592C46.806 32 45.718 33.056 44.438 33.76C43.158 34.432 41.67 34.768 39.974 34.768C37.67 34.768 35.91 34.08 34.694 32.704C33.478 31.296 32.87 29.344 32.87 26.848V8.56H39.686V25.984C39.686 27.328 39.91 28.288 40.358 28.864C40.806 29.408 41.51 29.68 42.47 29.68C44.294 29.68 45.846 28.576 47.126 26.368V8.56H53.942V34ZM69.1205 7.792C72.7045 7.792 75.7765 8.816 78.3365 10.864L75.7445 14.752C73.6005 13.408 71.4885 12.736 69.4085 12.736C68.2885 12.736 67.4245 12.944 66.8165 13.36C66.2085 13.776 65.9045 14.336 65.9045 15.04C65.9045 15.552 66.0325 15.984 66.2885 16.336C66.5765 16.688 67.0885 17.024 67.8245 17.344C68.5925 17.664 69.7285 18.048 71.2325 18.496C73.9205 19.232 75.9205 20.224 77.2325 21.472C78.5445 22.688 79.2005 24.368 79.2005 26.512C79.2005 28.208 78.7045 29.68 77.7125 30.928C76.7525 32.176 75.4405 33.136 73.7765 33.808C72.1125 34.448 70.2565 34.768 68.2085 34.768C66.0645 34.768 64.1125 34.448 62.3525 33.808C60.5925 33.136 59.0885 32.224 57.8405 31.072L61.2005 27.328C63.3445 28.992 65.6165 29.824 68.0165 29.824C69.2965 29.824 70.3045 29.584 71.0405 29.104C71.8085 28.592 72.1925 27.904 72.1925 27.04C72.1925 26.368 72.0485 25.84 71.7605 25.456C71.4725 25.072 70.9445 24.72 70.1765 24.4C69.4085 24.048 68.2085 23.648 66.5765 23.2C64.0165 22.496 62.1125 21.504 60.8645 20.224C59.6485 18.912 59.0405 17.296 59.0405 15.376C59.0405 13.936 59.4565 12.64 60.2885 11.488C61.1205 10.336 62.2885 9.44 63.7925 8.8C65.3285 8.128 67.1045 7.792 69.1205 7.792ZM98.8573 32.8C97.9293 33.44 96.8733 33.92 95.6893 34.24C94.5373 34.592 93.3853 34.768 92.2333 34.768C89.6093 34.736 87.6253 33.984 86.2812 32.512C84.9373 31.04 84.2653 28.88 84.2653 26.032V13.36H80.4733V8.56H84.2653V2.992L91.0813 2.176V8.56H96.9373L96.2653 13.36H91.0813V25.888C91.0813 27.104 91.2893 27.984 91.7053 28.528C92.1213 29.072 92.7613 29.344 93.6253 29.344C94.4893 29.344 95.4493 29.056 96.5053 28.48L98.8573 32.8ZM120.8 26.944C120.8 27.936 120.944 28.672 121.232 29.152C121.52 29.6 122 29.936 122.672 30.16L121.232 34.672C119.728 34.544 118.496 34.192 117.536 33.616C116.608 33.04 115.888 32.144 115.376 30.928C113.712 33.488 111.168 34.768 107.744 34.768C105.216 34.768 103.2 34.048 101.696 32.608C100.224 31.136 99.488 29.232 99.488 26.896C99.488 24.112 100.496 21.984 102.512 20.512C104.528 19.04 107.424 18.304 111.2 18.304H114.128V17.056C114.128 15.488 113.776 14.4 113.072 13.792C112.368 13.184 111.2 12.88 109.568 12.88C107.776 12.88 105.536 13.328 102.848 14.224L101.312 9.664C104.48 8.416 107.616 7.792 110.72 7.792C114.176 7.792 116.72 8.544 118.352 10.048C119.984 11.52 120.8 13.728 120.8 16.672V26.944ZM109.616 29.872C111.536 29.872 113.04 28.928 114.128 27.04V22.192H111.872C108.192 22.192 106.352 23.568 106.352 26.32C106.352 27.44 106.624 28.32 107.168 28.96C107.744 29.568 108.56 29.872 109.616 29.872ZM148.027 8.56L139.867 34H131.755L123.451 8.56H130.843L135.883 28.672L141.019 8.56H148.027ZM161.658 7.792C165.466 7.792 168.442 8.992 170.586 11.392C172.73 13.76 173.802 17.056 173.802 21.28C173.802 23.968 173.306 26.336 172.314 28.384C171.354 30.4 169.946 31.968 168.09 33.088C166.266 34.208 164.106 34.768 161.61 34.768C157.802 34.768 154.81 33.584 152.634 31.216C150.49 28.816 149.418 25.504 149.418 21.28C149.418 18.592 149.898 16.24 150.858 14.224C151.85 12.176 153.258 10.592 155.082 9.472C156.938 8.352 159.13 7.792 161.658 7.792ZM161.658 12.88C159.93 12.88 158.634 13.568 157.77 14.944C156.938 16.288 156.522 18.4 156.522 21.28C156.522 24.16 156.938 26.288 157.77 27.664C158.634 29.008 159.914 29.68 161.61 29.68C163.306 29.68 164.57 29.008 165.402 27.664C166.266 26.288 166.698 24.16 166.698 21.28C166.698 18.4 166.282 16.288 165.45 14.944C164.618 13.568 163.354 12.88 161.658 12.88Z" fill="#141414"/>
<path d="M181.337 26.56C182.489 26.56 183.465 26.96 184.265 27.76C185.065 28.56 185.465 29.52 185.465 30.64C185.465 31.76 185.065 32.736 184.265 33.568C183.465 34.368 182.489 34.768 181.337 34.768C180.217 34.768 179.257 34.368 178.457 33.568C177.657 32.736 177.257 31.76 177.257 30.64C177.257 29.52 177.657 28.56 178.457 27.76C179.257 26.96 180.217 26.56 181.337 26.56Z" fill="#078EAC"/>
</svg>
