<svg width="534" height="38" viewBox="0 0 534 38" fill="none" xmlns="http://www.w3.org/2000/svg">
<path d="M16.376 3.01601C18.616 3.01601 20.6 3.36801 22.328 4.07201C24.088 4.74401 25.72 5.72001 27.224 7.00001L23.528 10.84C22.344 9.94401 21.224 9.28801 20.168 8.87201C19.144 8.45601 17.976 8.24801 16.664 8.24801C14.136 8.24801 12.088 9.25601 10.52 11.272C8.98397 13.256 8.21597 16.296 8.21597 20.392C8.21597 24.712 8.80798 27.816 9.99198 29.704C11.208 31.56 13.08 32.488 15.608 32.488C17.432 32.488 19.08 32.088 20.552 31.288V23.176H15.896L15.176 18.04H27.416V34.408C25.688 35.464 23.816 36.296 21.8 36.904C19.816 37.48 17.8 37.768 15.752 37.768C10.856 37.768 7.14398 36.296 4.61597 33.352C2.08797 30.408 0.823975 26.072 0.823975 20.344C0.823975 16.728 1.51197 13.608 2.88797 10.984C4.26397 8.36001 6.11997 6.37601 8.45598 5.03201C10.824 3.68801 13.464 3.01601 16.376 3.01601Z" fill="#141414"/>
<path d="M53.942 37H48.038L47.702 33.592C46.806 35 45.718 36.056 44.438 36.76C43.158 37.432 41.67 37.768 39.974 37.768C37.67 37.768 35.91 37.08 34.694 35.704C33.478 34.296 32.87 32.344 32.87 29.848V11.56H39.686V28.984C39.686 30.328 39.91 31.288 40.358 31.864C40.806 32.408 41.51 32.68 42.47 32.68C44.294 32.68 45.846 31.576 47.126 29.368V11.56H53.942V37Z" fill="#141414"/>
<path d="M69.1205 10.792C72.7045 10.792 75.7765 11.816 78.3365 13.864L75.7445 17.752C73.6005 16.408 71.4885 15.736 69.4085 15.736C68.2885 15.736 67.4245 15.944 66.8165 16.36C66.2085 16.776 65.9045 17.336 65.9045 18.04C65.9045 18.552 66.0325 18.984 66.2885 19.336C66.5765 19.688 67.0885 20.024 67.8245 20.344C68.5925 20.664 69.7285 21.048 71.2325 21.496C73.9205 22.232 75.9205 23.224 77.2325 24.472C78.5445 25.688 79.2005 27.368 79.2005 29.512C79.2005 31.208 78.7045 32.68 77.7125 33.928C76.7525 35.176 75.4405 36.136 73.7765 36.808C72.1125 37.448 70.2565 37.768 68.2085 37.768C66.0645 37.768 64.1125 37.448 62.3525 36.808C60.5925 36.136 59.0885 35.224 57.8405 34.072L61.2005 30.328C63.3445 31.992 65.6165 32.824 68.0165 32.824C69.2965 32.824 70.3045 32.584 71.0405 32.104C71.8085 31.592 72.1925 30.904 72.1925 30.04C72.1925 29.368 72.0485 28.84 71.7605 28.456C71.4725 28.072 70.9445 27.72 70.1765 27.4C69.4085 27.048 68.2085 26.648 66.5765 26.2C64.0165 25.496 62.1125 24.504 60.8645 23.224C59.6485 21.912 59.0405 20.296 59.0405 18.376C59.0405 16.936 59.4565 15.64 60.2885 14.488C61.1205 13.336 62.2885 12.44 63.7925 11.8C65.3285 11.128 67.1045 10.792 69.1205 10.792Z" fill="#141414"/>
<path d="M98.8572 35.8C97.9292 36.44 96.8732 36.92 95.6892 37.24C94.5372 37.592 93.3852 37.768 92.2332 37.768C89.6092 37.736 87.6252 36.984 86.2812 35.512C84.9372 34.04 84.2652 31.88 84.2652 29.032V16.36H80.4732V11.56H84.2652V5.99201L91.0812 5.17601V11.56H96.9372L96.2652 16.36H91.0812V28.888C91.0812 30.104 91.2892 30.984 91.7052 31.528C92.1212 32.072 92.7612 32.344 93.6252 32.344C94.4892 32.344 95.4492 32.056 96.5052 31.48L98.8572 35.8Z" fill="#141414"/>
<path d="M120.8 29.944C120.8 30.936 120.944 31.672 121.232 32.152C121.52 32.6 122 32.936 122.672 33.16L121.232 37.672C119.728 37.544 118.496 37.192 117.536 36.616C116.608 36.04 115.888 35.144 115.376 33.928C113.712 36.488 111.168 37.768 107.744 37.768C105.216 37.768 103.2 37.048 101.696 35.608C100.224 34.136 99.488 32.232 99.488 29.896C99.488 27.112 100.496 24.984 102.512 23.512C104.528 22.04 107.424 21.304 111.2 21.304H114.128V20.056C114.128 18.488 113.776 17.4 113.072 16.792C112.368 16.184 111.2 15.88 109.568 15.88C107.776 15.88 105.536 16.328 102.848 17.224L101.312 12.664C104.48 11.416 107.616 10.792 110.72 10.792C114.176 10.792 116.72 11.544 118.352 13.048C119.984 14.52 120.8 16.728 120.8 19.672V29.944ZM109.616 32.872C111.536 32.872 113.04 31.928 114.128 30.04V25.192H111.872C108.192 25.192 106.352 26.568 106.352 29.32C106.352 30.44 106.624 31.32 107.168 31.96C107.744 32.568 108.56 32.872 109.616 32.872Z" fill="#141414"/>
<path d="M148.027 11.56L139.867 37H131.755L123.451 11.56H130.843L135.883 31.672L141.019 11.56H148.027Z" fill="#141414"/>
<path d="M161.658 10.792C165.466 10.792 168.442 11.992 170.586 14.392C172.73 16.76 173.802 20.056 173.802 24.28C173.802 26.968 173.306 29.336 172.314 31.384C171.354 33.4 169.946 34.968 168.09 36.088C166.266 37.208 164.106 37.768 161.61 37.768C157.802 37.768 154.81 36.584 152.634 34.216C150.49 31.816 149.418 28.504 149.418 24.28C149.418 21.592 149.898 19.24 150.858 17.224C151.85 15.176 153.258 13.592 155.082 12.472C156.938 11.352 159.13 10.792 161.658 10.792ZM161.658 15.88C159.93 15.88 158.634 16.568 157.77 17.944C156.938 19.288 156.522 21.4 156.522 24.28C156.522 27.16 156.938 29.288 157.77 30.664C158.634 32.008 159.914 32.68 161.61 32.68C163.306 32.68 164.57 32.008 165.402 30.664C166.266 29.288 166.698 27.16 166.698 24.28C166.698 21.4 166.282 19.288 165.45 17.944C164.618 16.568 163.354 15.88 161.658 15.88Z" fill="#141414"/>
<path d="M215.904 37H206.832L196.272 10.648C196.56 12.92 196.784 15.064 196.944 17.08C197.136 19.064 197.232 21.4 197.232 24.088V37H190.848V3.78401H199.728L210.48 30.184C209.84 25.896 209.52 21.96 209.52 18.376V3.78401H215.904V37Z" fill="#141414"/>
<path d="M233.47 10.792C237.278 10.792 240.254 11.992 242.398 14.392C244.542 16.76 245.614 20.056 245.614 24.28C245.614 26.968 245.118 29.336 244.126 31.384C243.166 33.4 241.758 34.968 239.902 36.088C238.078 37.208 235.918 37.768 233.422 37.768C229.614 37.768 226.622 36.584 224.446 34.216C222.302 31.816 221.23 28.504 221.23 24.28C221.23 21.592 221.71 19.24 222.67 17.224C223.662 15.176 225.07 13.592 226.894 12.472C228.75 11.352 230.942 10.792 233.47 10.792ZM233.47 15.88C231.742 15.88 230.446 16.568 229.582 17.944C228.75 19.288 228.334 21.4 228.334 24.28C228.334 27.16 228.75 29.288 229.582 30.664C230.446 32.008 231.726 32.68 233.422 32.68C235.118 32.68 236.382 32.008 237.214 30.664C238.078 29.288 238.51 27.16 238.51 24.28C238.51 21.4 238.094 19.288 237.262 17.944C236.43 16.568 235.166 15.88 233.47 15.88Z" fill="#141414"/>
<path d="M265.005 10.792C267.245 10.792 268.989 11.48 270.237 12.856C271.485 14.2 272.109 16.072 272.109 18.472V37H265.293V19.624C265.293 18.248 265.053 17.288 264.573 16.744C264.125 16.168 263.437 15.88 262.509 15.88C261.549 15.88 260.669 16.184 259.869 16.792C259.101 17.368 258.349 18.248 257.613 19.432V37H250.797V11.56H256.701L257.229 14.776C258.285 13.464 259.437 12.472 260.685 11.8C261.965 11.128 263.405 10.792 265.005 10.792Z" fill="#141414"/>
<path d="M292.802 10.792C295.042 10.792 296.786 11.48 298.034 12.856C299.282 14.2 299.906 16.072 299.906 18.472V37H293.09V19.624C293.09 18.248 292.85 17.288 292.37 16.744C291.922 16.168 291.234 15.88 290.306 15.88C289.346 15.88 288.466 16.184 287.666 16.792C286.898 17.368 286.146 18.248 285.41 19.432V37H278.594V11.56H284.498L285.026 14.776C286.082 13.464 287.234 12.472 288.482 11.8C289.762 11.128 291.202 10.792 292.802 10.792Z" fill="#141414"/>
<path d="M327.895 23.704C327.895 24.024 327.847 24.904 327.751 26.344H311.863C312.087 28.648 312.711 30.28 313.735 31.24C314.759 32.2 316.151 32.68 317.911 32.68C318.999 32.68 320.023 32.504 320.983 32.152C321.943 31.8 322.983 31.24 324.103 30.472L326.935 34.312C324.087 36.616 320.871 37.768 317.287 37.768C313.287 37.768 310.215 36.568 308.071 34.168C305.927 31.768 304.855 28.52 304.855 24.424C304.855 21.832 305.303 19.512 306.199 17.464C307.127 15.384 308.455 13.752 310.183 12.568C311.943 11.384 314.023 10.792 316.423 10.792C320.039 10.792 322.855 11.928 324.871 14.2C326.887 16.472 327.895 19.64 327.895 23.704ZM321.127 21.784C321.127 17.56 319.607 15.448 316.567 15.448C315.159 15.448 314.055 15.976 313.255 17.032C312.487 18.056 312.023 19.736 311.863 22.072H321.127V21.784Z" fill="#141414"/>
<path d="M360.333 10.792C362.349 10.792 363.965 11.48 365.181 12.856C366.429 14.232 367.053 16.104 367.053 18.472V37H360.237V19.624C360.237 17.128 359.405 15.88 357.741 15.88C356.845 15.88 356.061 16.168 355.389 16.744C354.717 17.32 354.029 18.216 353.325 19.432V37H346.509V19.624C346.509 17.128 345.677 15.88 344.013 15.88C343.117 15.88 342.333 16.184 341.661 16.792C340.989 17.368 340.317 18.248 339.645 19.432V37H332.829V11.56H338.733L339.261 14.728C340.221 13.448 341.293 12.472 342.477 11.8C343.693 11.128 345.085 10.792 346.653 10.792C348.093 10.792 349.341 11.16 350.397 11.896C351.453 12.6 352.221 13.608 352.701 14.92C353.757 13.544 354.893 12.52 356.109 11.848C357.357 11.144 358.765 10.792 360.333 10.792Z" fill="#141414"/>
<path d="M401.02 10.792C403.036 10.792 404.652 11.48 405.868 12.856C407.116 14.232 407.74 16.104 407.74 18.472V37H400.924V19.624C400.924 17.128 400.092 15.88 398.428 15.88C397.532 15.88 396.748 16.168 396.076 16.744C395.404 17.32 394.716 18.216 394.012 19.432V37H387.196V19.624C387.196 17.128 386.364 15.88 384.7 15.88C383.804 15.88 383.02 16.184 382.348 16.792C381.676 17.368 381.004 18.248 380.332 19.432V37H373.516V11.56H379.42L379.948 14.728C380.908 13.448 381.98 12.472 383.164 11.8C384.38 11.128 385.772 10.792 387.34 10.792C388.78 10.792 390.028 11.16 391.084 11.896C392.14 12.6 392.908 13.608 393.388 14.92C394.444 13.544 395.58 12.52 396.796 11.848C398.044 11.144 399.452 10.792 401.02 10.792Z" fill="#141414"/>
<path d="M433.644 29.944C433.644 30.936 433.788 31.672 434.076 32.152C434.364 32.6 434.844 32.936 435.516 33.16L434.076 37.672C432.572 37.544 431.34 37.192 430.38 36.616C429.452 36.04 428.732 35.144 428.22 33.928C426.556 36.488 424.012 37.768 420.588 37.768C418.06 37.768 416.044 37.048 414.54 35.608C413.068 34.136 412.332 32.232 412.332 29.896C412.332 27.112 413.34 24.984 415.356 23.512C417.372 22.04 420.268 21.304 424.044 21.304H426.972V20.056C426.972 18.488 426.62 17.4 425.916 16.792C425.212 16.184 424.044 15.88 422.412 15.88C420.62 15.88 418.38 16.328 415.692 17.224L414.156 12.664C417.324 11.416 420.46 10.792 423.564 10.792C427.02 10.792 429.564 11.544 431.196 13.048C432.828 14.52 433.644 16.728 433.644 19.672V29.944ZM422.46 32.872C424.38 32.872 425.884 31.928 426.972 30.04V25.192H424.716C421.036 25.192 419.196 26.568 419.196 29.32C419.196 30.44 419.468 31.32 420.012 31.96C420.588 32.568 421.404 32.872 422.46 32.872Z" fill="#141414"/>
<path d="M451.062 10.792C452.758 10.792 454.278 11.048 455.622 11.56C456.998 12.04 458.294 12.808 459.51 13.864L456.534 17.896C455.702 17.256 454.886 16.792 454.086 16.504C453.318 16.216 452.47 16.072 451.542 16.072C447.926 16.072 446.118 18.856 446.118 24.424C446.118 27.24 446.582 29.256 447.51 30.472C448.438 31.688 449.766 32.296 451.494 32.296C452.39 32.296 453.206 32.168 453.942 31.912C454.678 31.624 455.542 31.16 456.534 30.52L459.51 34.792C457.078 36.776 454.294 37.768 451.158 37.768C448.662 37.768 446.486 37.224 444.63 36.136C442.806 35.048 441.398 33.512 440.406 31.528C439.414 29.512 438.918 27.16 438.918 24.472C438.918 21.784 439.414 19.416 440.406 17.368C441.398 15.288 442.806 13.672 444.63 12.52C446.486 11.368 448.63 10.792 451.062 10.792Z" fill="#141414"/>
<path d="M477.584 10.792C479.792 10.792 481.52 11.48 482.768 12.856C484.048 14.2 484.688 16.072 484.688 18.472V37H477.872V19.624C477.872 18.248 477.632 17.288 477.152 16.744C476.672 16.168 475.984 15.88 475.088 15.88C473.296 15.88 471.664 17.048 470.192 19.384V37H463.376V1.432L470.192 0.712006V14.44C471.216 13.224 472.32 12.312 473.504 11.704C474.72 11.096 476.08 10.792 477.584 10.792Z" fill="#141414"/>
<path d="M512.676 23.704C512.676 24.024 512.628 24.904 512.532 26.344H496.644C496.868 28.648 497.492 30.28 498.516 31.24C499.54 32.2 500.932 32.68 502.692 32.68C503.78 32.68 504.804 32.504 505.764 32.152C506.724 31.8 507.764 31.24 508.884 30.472L511.716 34.312C508.868 36.616 505.652 37.768 502.068 37.768C498.068 37.768 494.996 36.568 492.852 34.168C490.708 31.768 489.636 28.52 489.636 24.424C489.636 21.832 490.084 19.512 490.98 17.464C491.908 15.384 493.236 13.752 494.964 12.568C496.724 11.384 498.804 10.792 501.204 10.792C504.82 10.792 507.636 11.928 509.652 14.2C511.668 16.472 512.676 19.64 512.676 23.704ZM505.908 21.784C505.908 17.56 504.388 15.448 501.348 15.448C499.94 15.448 498.836 15.976 498.036 17.032C497.268 18.056 496.804 19.736 496.644 22.072H505.908V21.784Z" fill="#141414"/>
<path d="M530.762 10.84C531.53 10.84 532.378 10.968 533.306 11.224L532.154 17.8C531.258 17.576 530.506 17.464 529.898 17.464C528.394 17.464 527.226 17.992 526.394 19.048C525.562 20.104 524.906 21.704 524.426 23.848V37H517.61V11.56H523.514L524.138 16.504C524.746 14.712 525.626 13.32 526.778 12.328C527.962 11.336 529.29 10.84 530.762 10.84Z" fill="#141414"/>
</svg>
