<svg width="150" height="150" viewBox="0 0 150 150" fill="none" xmlns="http://www.w3.org/2000/svg">
<path d="M25 15.625H131.25L118.75 121.875L78.125 134.375L34.375 121.875L25 15.625Z" fill="url(#paint0_linear_302_286)"/>
<path d="M120.719 25L110.156 114.719L78.125 124.563V25H120.719Z" fill="#7DD7EB"/>
<path d="M78.125 65.625L81.25 71.875L78.125 78.125H49.3438L52 37.5H78.125L81.25 43.75L78.125 50H65.7188L64.6875 65.625H78.125Z" fill="#FAF9F8"/>
<path d="M77.8125 101.781L78.125 101.688L81.25 109.375L78.125 114.75L77.9375 114.813L51.9063 107.375L50.1562 87.5H62.7188L63.5938 97.7188L77.8125 101.781Z" fill="#EBEBEB"/>
<path d="M106.469 65.625L101.562 107.562L78.125 114.75V101.688L90.0938 98L92.4062 78.125H78.125V65.625H106.469Z" fill="white"/>
<path d="M109.125 56.25H96.6563L95.8438 50H78.125V37.5H106.656L107.188 41.4375L109.125 56.25Z" fill="white"/>
<defs>
<linearGradient id="paint0_linear_302_286" x1="78.125" y1="15.625" x2="78.125" y2="134.375" gradientUnits="userSpaceOnUse">
<stop stop-color="#078EAC"/>
<stop offset="1" stop-color="#BEEBF5"/>
</linearGradient>
</defs>
</svg>
