<svg width="150" height="150" viewBox="0 0 150 150" fill="none" xmlns="http://www.w3.org/2000/svg">
<path d="M18.75 143.75V18.75H143.75V143.75H18.75Z" fill="url(#paint0_linear_302_297)"/>
<path d="M100.918 113.486C103.398 117.437 106.094 121.223 111.804 121.223C116.6 121.223 119.116 118.886 119.116 115.651C119.116 111.78 116.514 110.406 111.238 108.152L108.345 106.943C99.9967 103.47 94.4443 99.1172 94.4443 89.9238C94.4443 81.4512 101.058 75.0035 111.392 75.0035C118.751 75.0035 124.038 77.5031 127.852 84.0492L118.84 89.6988C116.858 86.2254 114.715 84.8578 111.392 84.8578C108.001 84.8578 105.854 86.9566 105.854 89.6988C105.854 93.0879 108.004 94.459 112.969 96.5578L115.862 97.7672C125.701 101.877 131.25 106.075 131.25 115.511C131.25 125.678 123.063 131.25 112.073 131.25C101.323 131.25 95.2185 125.959 91.8204 119.409L100.918 113.486ZM59.3878 113.774C61.2016 116.959 63.9581 119.409 67.9225 119.409C71.7149 119.409 73.8979 117.94 73.8979 112.227V75H85.8451V114.027C85.8451 125.864 78.8445 131.25 68.6215 131.25C59.3842 131.25 52.7171 125.112 50 119.409L59.3878 113.774Z" fill="#000001"/>
<defs>
<linearGradient id="paint0_linear_302_297" x1="81.25" y1="18.75" x2="81.25" y2="143.75" gradientUnits="userSpaceOnUse">
<stop stop-color="#078EAC"/>
<stop offset="1" stop-color="#BEEBF5"/>
</linearGradient>
</defs>
</svg>
