<svg width="24" height="24" viewBox="0 0 24 24" fill="none" xmlns="http://www.w3.org/2000/svg">
<path d="M12 19.725C11.8912 19.725 11.7848 19.7125 11.6809 19.6875C11.577 19.6625 11.4833 19.6167 11.4 19.55C10.6667 19.0667 9.88696 18.6875 9.06087 18.4125C8.23479 18.1375 7.38117 18 6.5 18C5.8 18 5.1125 18.0917 4.4375 18.275C3.7625 18.4583 3.11667 18.7167 2.5 19.05C2.15 19.2333 1.8125 19.225 1.4875 19.025C1.1625 18.825 1 18.5333 1 18.15V6.10002C1 5.91668 1.04583 5.74168 1.1375 5.57502C1.22917 5.40835 1.36667 5.28335 1.55 5.20002C2.31667 4.80002 3.11667 4.50002 3.95 4.30002C4.78333 4.10002 5.63333 4.00002 6.5 4.00002C7.46667 4.00002 8.4125 4.12502 9.3375 4.37502C10.2625 4.62502 11.15 5.00002 12 5.50002V18.15C12.85 17.6 13.7417 17.1875 14.675 16.9125C15.6083 16.6375 16.55 16.5 17.5 16.5C18.1 16.5 18.7542 16.5583 19.4625 16.675C20.1708 16.7917 20.85 17.0333 21.5 17.4V4.77502C21.6648 4.83752 21.8268 4.90314 21.9861 4.97189C22.1454 5.04064 22.3 5.11668 22.45 5.20002C22.6167 5.30002 22.75 5.43066 22.85 5.59194C22.95 5.75324 23 5.9226 23 6.10002V18.15C23 18.5333 22.8375 18.825 22.5125 19.025C22.1875 19.225 21.85 19.2333 21.5 19.05C20.8833 18.7167 20.2375 18.4583 19.5625 18.275C18.8875 18.0917 18.2 18 17.5 18C16.6188 18 15.7652 18.1375 14.9391 18.4125C14.113 18.6875 13.3333 19.0667 12.6 19.55C12.5167 19.6167 12.423 19.6625 12.3191 19.6875C12.2152 19.7125 12.1089 19.725 12 19.725ZM14.125 15.275C13.9917 15.375 13.8542 15.3958 13.7125 15.3375C13.5708 15.2792 13.5 15.1667 13.5 15V7.14804C13.5 7.11602 13.5333 7.03335 13.6 6.90002L19.35 1.15002C19.4667 1.03335 19.6042 1.00453 19.7625 1.06357C19.9208 1.12258 20 1.23473 20 1.40002V10C20 10.0333 19.9583 10.125 19.875 10.275L14.125 15.275ZM10.5 17.4V6.42502C9.93333 6.10835 9.275 5.87502 8.525 5.72502C7.775 5.57502 7.1 5.50002 6.5 5.50002C5.71667 5.50002 4.9875 5.58335 4.3125 5.75002C3.6375 5.91668 3.03333 6.12946 2.5 6.38834V17.4C3.08333 17.1167 3.7125 16.8958 4.3875 16.7375C5.0625 16.5792 5.77083 16.5 6.5125 16.5C7.25417 16.5 7.95833 16.5792 8.625 16.7375C9.29167 16.8958 9.91667 17.1167 10.5 17.4Z" fill="url(#paint0_linear_103_266)"/>
<defs>
<linearGradient id="paint0_linear_103_266" x1="12" y1="1.03381" x2="12" y2="19.725" gradientUnits="userSpaceOnUse">
<stop stop-color="#078EAC"/>
<stop offset="1" stop-color="#BEEBF5"/>
</linearGradient>
</defs>
</svg>
