<svg width="158" height="150" viewBox="0 0 158 150" fill="none" xmlns="http://www.w3.org/2000/svg">
<g filter="url(#filter0_d_353_14)">
<path d="M4.00625 109.503H10.0063V87.3625L18.3406 106.291C19.3688 108.65 20.775 109.484 23.5344 109.484C26.2937 109.484 27.6437 108.65 28.6719 106.291L37.0063 87.8469V109.503H43.0063V86.8219C43.0063 84.6437 42.1406 83.5875 40.3531 83.0437C36.0813 81.7 33.2125 82.8594 31.9156 85.7687L23.3687 105.019L15.0906 85.7687C13.8469 82.8625 10.9281 81.7 6.65312 83.0437C4.86562 83.5875 4 84.6406 4 86.8187V109.5L4.00625 109.503Z" fill="#00796B"/>
<path d="M46.0029 91.5032H52.0029V104.175C51.9561 104.8 52.2029 106.459 55.0967 106.503C56.5717 106.528 63.9123 106.503 64.0029 106.503V91.5032H70.0029C70.0279 91.5032 70.0029 110.153 70.0029 110.231C70.0342 114.831 64.2904 115.425 61.6498 115.503H46.0061V112.503C46.0373 112.503 60.9654 112.506 61.0092 112.503C64.4092 112.144 64.0061 110.272 64.0061 109.703V109.503H54.5936C49.3748 109.456 46.0467 107.156 46.0092 104.534C46.0029 104.291 46.1217 91.6157 46.0029 91.5032Z" fill="#00796B"/>
<path d="M73.003 109.503H88.0249C89.9937 109.503 91.9062 109.091 93.4249 108.378C95.9562 107.216 96.9999 105.644 96.9999 103.578V99.3032C96.9999 94.6907 91.2812 94.5032 87.9999 94.5032H81.9999C79.6405 94.5032 79.2812 93.0782 78.9999 91.5032V88.5032C79.2812 87.3032 79.8062 85.6907 81.8843 85.5032C84.2999 85.5032 96.9968 85.5032 96.9968 85.5032V82.5032H82.728C80.3687 82.5032 72.9968 82.7844 72.9968 88.5032V92.2125C72.9968 94.8375 75.303 96.9751 80.3093 97.5001C80.8718 97.5376 81.4343 97.5751 81.9937 97.5751C81.9937 97.5751 87.8249 97.4626 87.9937 97.5001C91.3687 97.5001 90.9937 100.125 90.9937 100.5V103.5C90.9937 103.913 90.8999 106.5 87.9593 106.5C87.7343 106.5 72.9937 106.5 72.9937 106.5V109.503H73.003Z" fill="url(#paint0_linear_353_14)"/>
<path d="M130 103.375C130 106.997 132.047 109.028 137.475 109.434C137.981 109.469 138.491 109.5 139 109.5H154V106.5H140.141C137.044 106.5 136 105.2 136 103.341V82.5H130V103.375Z" fill="url(#paint1_linear_353_14)"/>
<path d="M99.9502 103.503V88.5032C99.9502 85.3157 101.513 83.1157 105.938 82.5032H108.038H118.81H120.45C124.875 83.1157 126.95 85.3125 126.95 88.5032V103.447C126.95 106.031 126.278 107.419 124.088 108.319L128.738 112.5H121.988L118.644 109.5H114.716L108.041 109.538C107.075 109.538 106.056 109.403 104.938 109.097C101.581 108.181 99.9502 106.419 99.9502 103.503ZM105.95 103.503C106.256 104.963 107.428 106.503 109.513 106.503H115.338L112 103.503H118.797L120.419 105.009C120.419 105.009 121 104.534 121 103.503C121 102.472 120.95 88.5032 120.95 88.5032C120.644 87.1469 119.269 85.5032 117.238 85.5032H109.516C107.175 85.5032 105.953 87.2157 105.953 88.8094L105.95 103.503Z" fill="url(#paint2_linear_353_14)"/>
<path d="M148.372 79.3406C145.15 79.2531 142.691 79.5531 140.588 80.4375C139.991 80.6906 139.038 80.6969 138.938 81.4469C139.266 81.7906 139.316 82.3063 139.578 82.7281C140.078 83.5406 140.928 84.6313 141.685 85.2C142.513 85.825 143.366 86.4938 144.25 87.0344C145.825 87.9938 147.585 88.5438 149.103 89.5063C149.997 90.0719 150.885 90.7906 151.76 91.4281C152.191 91.7469 152.478 92.2375 153.041 92.4375C153.041 92.4063 153.041 92.3782 153.041 92.3469C152.747 91.9719 152.669 91.4563 152.4 91.0625C152.003 90.6656 151.606 90.2688 151.21 89.8719C150.047 88.3282 148.566 86.9688 146.997 85.8438C145.744 84.9438 142.941 83.7281 142.416 82.2719C142.385 82.2406 142.356 82.2125 142.322 82.1782C143.21 82.0782 144.25 81.7563 145.069 81.5375C146.447 81.1688 147.675 81.2656 149.097 80.8969C149.738 80.7125 150.378 80.5313 151.019 80.3469C151.019 80.225 151.019 80.1031 151.019 79.9813C150.3 79.2438 149.785 78.2688 149.003 77.6C146.95 75.8532 144.713 74.1094 142.41 72.6532C141.131 71.8469 139.55 71.3219 138.197 70.6375C137.741 70.4063 136.941 70.2875 136.641 69.9063C135.928 69 135.544 67.8469 134.994 66.7938C133.844 64.5813 132.713 62.1625 131.697 59.8344C131 58.2469 130.547 56.6781 129.681 55.2531C125.522 48.4156 121.044 44.2875 114.113 40.2313C112.638 39.3688 110.86 39.0281 108.981 38.5813C107.972 38.5219 106.966 38.4594 105.956 38.3969C105.341 38.1375 104.703 37.3875 104.122 37.0219C101.825 35.5688 95.9314 32.4125 94.2314 36.5625C93.1564 39.1813 95.8377 41.7375 96.7971 43.0656C97.4689 43.9969 98.3314 45.0406 98.8127 46.0906C99.1283 46.7781 99.1846 47.4688 99.4533 48.1969C100.119 49.9906 101.172 52.0344 102.035 53.6938C102.469 54.5344 102.95 55.4156 103.5 56.1656C103.838 56.625 104.416 56.8281 104.51 57.5406C103.944 58.3313 103.913 59.5594 103.594 60.5656C102.163 65.0813 102.703 70.6906 104.785 74.0281C105.422 75.0531 106.928 77.2531 108.997 76.4094C110.806 75.6719 110.403 73.3875 110.919 71.3719C111.035 70.9157 110.963 70.5813 111.194 70.275C111.194 70.3063 111.194 70.3344 111.194 70.3688C111.744 71.4656 112.291 72.5688 112.844 73.6656C114.066 75.6313 116.231 77.6844 118.063 79.0719C119.013 79.7906 119.763 81.0344 120.994 81.4532C120.994 81.4219 120.994 81.3938 120.994 81.3594C120.963 81.3594 120.935 81.3594 120.9 81.3594C120.663 80.9875 120.288 80.8344 119.985 80.5344C119.269 79.8313 118.469 78.9594 117.878 78.1532C116.21 75.8875 114.735 73.4063 113.391 70.825C112.75 69.5906 112.191 68.2344 111.65 66.9781C111.441 66.4938 111.444 65.7625 111.01 65.5125C110.416 66.4313 109.547 67.175 109.088 68.2594C108.356 69.9938 108.26 72.1125 107.991 74.3032C107.828 74.3594 107.9 74.3219 107.806 74.3938C106.531 74.0844 106.081 72.775 105.606 71.6469C104.406 68.7969 104.185 64.2094 105.241 60.9313C105.513 60.0813 106.747 57.4094 106.25 56.625C106.013 55.8407 105.225 55.3875 104.788 54.7907C104.241 54.0532 103.7 53.0781 103.322 52.225C102.341 50.0031 101.41 47.4188 100.375 45.1719C99.8814 44.0969 99.0471 43.0125 98.3596 42.0594C97.6002 41.0031 96.7471 40.225 96.1596 38.9469C95.9502 38.4938 95.6658 37.7656 95.9752 37.2969C96.0752 36.9813 96.2127 36.85 96.5252 36.7469C97.0564 36.3344 98.5346 36.8813 99.0908 37.1125C100.56 37.7219 101.785 38.3031 103.028 39.1281C103.625 39.525 104.228 40.2906 104.95 40.5031C105.225 40.5031 105.5 40.5031 105.775 40.5031C107.066 40.8 108.51 40.5969 109.713 40.9625C111.844 41.6094 113.75 42.6156 115.481 43.7094C120.763 47.0438 125.078 51.7875 128.031 57.45C128.506 58.3625 128.713 59.2313 129.128 60.1969C129.972 62.1469 131.038 64.1531 131.875 66.0594C132.713 67.9625 133.531 69.8813 134.716 71.4656C135.341 72.2969 137.747 72.7438 138.838 73.2063C139.603 73.5313 140.86 73.8657 141.585 74.3032C142.972 75.1407 144.316 76.1375 145.613 77.05C146.275 77.5094 148.272 78.5125 148.372 79.3406Z" fill="url(#paint3_linear_353_14)"/>
<path d="M107.431 44.4469C106.759 44.4344 106.284 44.5188 105.781 44.6313C105.781 44.6625 105.781 44.6907 105.781 44.725C105.812 44.725 105.841 44.725 105.875 44.725C106.197 45.3813 106.759 45.8094 107.156 46.375C107.462 47.0157 107.766 47.6563 108.072 48.2969C108.103 48.2657 108.131 48.2375 108.163 48.2063C108.728 47.8063 108.991 47.1688 108.988 46.1907C108.759 45.95 108.725 45.65 108.528 45.3657C108.266 44.9813 107.759 44.7657 107.431 44.4469Z" fill="url(#paint4_linear_353_14)"/>
</g>
<defs>
<filter id="filter0_d_353_14" x="0" y="0" width="158" height="158" filterUnits="userSpaceOnUse" color-interpolation-filters="sRGB">
<feFlood flood-opacity="0" result="BackgroundImageFix"/>
<feColorMatrix in="SourceAlpha" type="matrix" values="0 0 0 0 0 0 0 0 0 0 0 0 0 0 0 0 0 0 127 0" result="hardAlpha"/>
<feOffset dy="4"/>
<feGaussianBlur stdDeviation="2"/>
<feComposite in2="hardAlpha" operator="out"/>
<feColorMatrix type="matrix" values="0 0 0 0 0 0 0 0 0 0 0 0 0 0 0 0 0 0 0.25 0"/>
<feBlend mode="normal" in2="BackgroundImageFix" result="effect1_dropShadow_353_14"/>
<feBlend mode="normal" in="SourceGraphic" in2="effect1_dropShadow_353_14" result="shape"/>
</filter>
<linearGradient id="paint0_linear_353_14" x1="84.9968" y1="82.5032" x2="84.9968" y2="109.503" gradientUnits="userSpaceOnUse">
<stop stop-color="#078EAC"/>
<stop offset="1" stop-color="#BEEBF5"/>
</linearGradient>
<linearGradient id="paint1_linear_353_14" x1="142" y1="82.5" x2="142" y2="109.5" gradientUnits="userSpaceOnUse">
<stop stop-color="#078EAC"/>
<stop offset="1" stop-color="#BEEBF5"/>
</linearGradient>
<linearGradient id="paint2_linear_353_14" x1="114.344" y1="82.5032" x2="114.344" y2="112.5" gradientUnits="userSpaceOnUse">
<stop stop-color="#078EAC"/>
<stop offset="1" stop-color="#BEEBF5"/>
</linearGradient>
<linearGradient id="paint3_linear_353_14" x1="123.511" y1="34.5002" x2="123.511" y2="92.4375" gradientUnits="userSpaceOnUse">
<stop stop-color="#078EAC"/>
<stop offset="1" stop-color="#BEEBF5"/>
</linearGradient>
<linearGradient id="paint4_linear_353_14" x1="107.384" y1="44.4457" x2="107.384" y2="48.2969" gradientUnits="userSpaceOnUse">
<stop stop-color="#078EAC"/>
<stop offset="1" stop-color="#BEEBF5"/>
</linearGradient>
</defs>
</svg>
