<svg width="150" height="150" viewBox="0 0 150 150" fill="none" xmlns="http://www.w3.org/2000/svg">
<path d="M87.1875 75C87.1875 81.7369 81.7369 87.1875 75 87.1875C68.2631 87.1875 62.8125 81.7369 62.8125 75C62.8125 68.2631 68.2631 62.8125 75 62.8125C81.7369 62.8125 87.1875 68.2631 87.1875 75Z" fill="url(#paint0_linear_353_28)"/>
<path d="M75 88.125C67.7644 88.125 61.875 82.2375 61.875 75C61.875 67.7625 67.7644 61.875 75 61.875C82.2356 61.875 88.125 67.7625 88.125 75C88.125 82.2375 82.2356 88.125 75 88.125ZM75 63.75C68.7956 63.75 63.75 68.7956 63.75 75C63.75 81.2044 68.7956 86.25 75 86.25C81.2044 86.25 86.25 81.2044 86.25 75C86.25 68.7956 81.2044 63.75 75 63.75Z" fill="#4E7AB5"/>
<path d="M45.8888 141.568C42.6806 141.568 39.7594 140.833 37.2037 139.386C32.9287 136.961 29.9737 132.784 28.4175 126.973C26.6081 120.21 26.8237 111.227 29.04 100.952C11.1675 94.8038 0.9375 85.3706 0.9375 75C0.9375 64.6275 11.1656 55.1963 29.0381 49.05C26.8219 38.7731 26.6044 29.79 28.4137 23.0269C29.97 17.2144 32.925 13.0369 37.1981 10.6144C39.7519 9.16688 42.675 8.43188 45.8831 8.43188C54.1106 8.43188 64.4287 13.5506 75.0037 22.8656C85.5787 13.56 95.8931 8.44501 104.111 8.44501C107.319 8.44501 110.241 9.18001 112.796 10.6275C117.066 13.0481 120.023 17.2181 121.579 23.0231C123.39 29.7844 123.173 38.7694 120.954 49.0481C138.831 55.1944 149.062 64.6275 149.062 75C149.062 85.3725 138.831 94.8056 120.954 100.954C123.171 111.231 123.388 120.214 121.577 126.975C120.021 132.782 117.067 136.952 112.802 139.373C110.244 140.82 107.321 141.555 104.115 141.555C95.8913 141.555 85.5731 136.44 75.0019 127.138C64.4269 136.451 54.1106 141.568 45.8888 141.568ZM36.2569 103.136C34.3988 111.981 34.1906 119.537 35.6644 125.034C36.6806 128.833 38.4412 131.468 40.9031 132.863C42.315 133.663 43.9931 134.07 45.8888 134.07C52.2525 134.07 60.63 129.791 69.5531 122.001C65.0813 117.497 60.7163 112.399 56.5631 106.83C49.38 106.05 42.555 104.809 36.2569 103.136ZM80.4487 121.997C89.37 129.78 97.7494 134.055 104.113 134.057C106.009 134.057 107.687 133.65 109.103 132.849C111.557 131.458 113.314 128.829 114.328 125.036C115.802 119.535 115.596 111.981 113.738 103.138C107.434 104.811 100.607 106.052 93.4256 106.832C89.2744 112.401 84.915 117.497 80.4487 121.997ZM66.6863 107.612C69.4088 110.942 72.195 114.049 75 116.874C77.7975 114.051 80.5856 110.944 83.3063 107.612C80.5106 107.745 77.7262 107.813 75 107.813C72.2719 107.813 69.4856 107.745 66.6863 107.612ZM60.6544 99.7106C65.3325 100.11 70.1569 100.313 75 100.313C79.8469 100.313 84.6656 100.11 89.3363 99.7125C92.1225 95.805 94.7794 91.71 97.2375 87.5344C99.615 83.4938 101.852 79.2769 103.888 74.9981C101.858 70.7306 99.6225 66.5156 97.2394 62.4656C94.7869 58.2994 92.13 54.2044 89.3363 50.2875C84.6694 49.89 79.8506 49.6875 75 49.6875C70.1475 49.6875 65.3269 49.89 60.6619 50.2894C57.8681 54.2006 55.2075 58.2956 52.7513 62.4675C50.37 66.5156 48.135 70.7306 46.1025 75.0038C48.1312 79.2675 50.3662 83.4825 52.7494 87.5363C55.1944 91.6894 57.8512 95.7825 60.6544 99.7106ZM107.796 83.9606C106.472 86.4844 105.099 88.9594 103.699 91.3369C102.287 93.7406 100.785 96.1519 99.225 98.5294C103.676 97.8431 107.934 96.9638 111.921 95.9044C110.814 92.0625 109.429 88.0556 107.796 83.9606ZM38.07 95.9025C42.0581 96.96 46.3144 97.8413 50.76 98.5275C49.1906 96.135 47.6888 93.7219 46.2863 91.3369C44.8894 88.9613 43.515 86.49 42.1931 83.9663C40.5675 88.0425 39.1838 92.0456 38.07 95.9025ZM112.155 75C115.02 81.3581 117.354 87.6431 119.107 93.7069C132.986 88.8244 141.562 81.7013 141.562 75C141.562 68.2988 132.986 61.1756 119.107 56.2931C117.358 62.3569 115.022 68.6419 112.155 75ZM30.885 56.2969C17.0119 61.1775 8.4375 68.3006 8.4375 75C8.4375 81.7013 17.0119 88.8244 30.8888 93.705C32.64 87.6394 34.9744 81.3544 37.8356 75.0038C34.9725 68.6513 32.6381 62.3663 30.885 56.2969ZM38.0681 54.0975C39.1819 57.9488 40.5656 61.9538 42.1931 66.0375C43.5131 63.5213 44.8856 61.0481 46.2881 58.665C47.6981 56.2669 49.2 53.8556 50.7656 51.4725C46.3144 52.1569 42.0581 53.0381 38.0681 54.0975ZM99.2288 51.4706C100.798 53.865 102.3 56.2763 103.702 58.665C105.101 61.0406 106.476 63.5138 107.799 66.0375C109.429 61.9556 110.813 57.9506 111.926 54.0956C107.933 53.0363 103.676 52.155 99.2288 51.4706ZM45.8831 15.9319C43.9875 15.9319 42.3112 16.3369 40.9012 17.1394C38.4412 18.5344 36.6787 21.1688 35.6606 24.9675C34.1887 30.4706 34.395 38.025 36.255 46.8656C42.555 45.1931 49.3837 43.95 56.5687 43.17C60.7256 37.5994 65.0906 32.505 69.5569 28.005C60.6319 20.2106 52.2487 15.9319 45.8831 15.9319ZM93.4275 43.1681C100.609 43.9481 107.436 45.1894 113.739 46.8619C115.599 38.0194 115.808 30.4631 114.332 24.9619C113.316 21.1706 111.557 18.5419 109.101 17.1506C107.687 16.35 106.009 15.9431 104.111 15.9431C97.7494 15.9431 89.3738 20.22 80.4506 28.005C84.9131 32.5031 89.2744 37.5994 93.4275 43.1681ZM75 42.1875C77.7262 42.1875 80.5106 42.255 83.3081 42.3881C80.5894 39.0619 77.8031 35.9569 75.0037 33.1294C72.1969 35.9606 69.4125 39.0656 66.6937 42.3881C69.4894 42.255 72.2738 42.1875 75 42.1875Z" fill="url(#paint1_linear_353_28)"/>
<path d="M45.8831 9.36937C54.3094 9.36937 64.6256 14.8256 75.0056 24.12C85.3837 14.8331 95.6944 9.38249 104.113 9.38249C107.156 9.38249 109.924 10.0762 112.337 11.4431C116.379 13.7344 119.184 17.7112 120.673 23.2669C122.693 30.6112 122.269 39.6544 119.859 49.6669C137.151 55.4437 148.125 64.5581 148.125 75C148.125 85.4419 137.151 94.5562 119.857 100.335C122.372 111.159 122.794 120.446 120.671 126.733C119.183 132.287 116.379 136.266 112.341 138.557C109.924 139.926 107.728 140.625 104.687 140.625C104.685 140.625 103.907 140.625 103.905 140.625C95.4825 140.625 85.3763 135.169 75 125.886C64.6219 135.178 54.3094 140.631 45.8869 140.631C42.8438 140.631 40.0762 139.937 37.6631 138.57C33.6169 136.273 30.81 132.291 29.3231 126.731C27.0919 119.762 27.5419 110.601 30.1369 100.333C12.8475 94.5544 1.875 85.4419 1.875 75C1.875 64.56 12.8475 55.4456 30.135 49.6669C28.8469 43.9312 28.0238 38.6062 27.9956 33.75C27.9731 29.9137 28.4962 26.3456 29.3212 23.2687C30.81 17.7075 33.615 13.725 37.6613 11.43C40.0725 10.0612 42.84 9.36937 45.8831 9.36937ZM35.5462 48.0262C42.0656 46.2356 49.305 44.8819 57.0769 44.0569C61.5431 38.0381 66.2175 32.6269 70.9256 27.9619C61.7906 19.8131 52.8956 14.9925 45.8831 14.9925C43.8225 14.9925 41.9925 15.4387 40.4381 16.3219C37.7512 17.8462 35.8406 20.6719 34.755 24.7237C33.1462 30.7275 33.5119 38.8425 35.5462 48.0262ZM114.448 48.0244C116.483 38.8406 116.848 30.7237 115.239 24.72C114.156 20.6756 112.245 17.8556 109.564 16.335C108.007 15.4519 106.172 15.0056 104.113 15.0056C97.1063 15.0056 88.2169 19.8206 79.0838 27.9619C83.79 32.6269 88.4587 38.0381 92.9212 44.055C100.689 44.88 107.929 46.2337 114.448 48.0244ZM64.6444 43.4362C68.0231 43.2356 71.4112 43.0612 74.9344 43.0612C78.4575 43.0612 81.975 43.2375 85.3538 43.4362C81.9637 39.1631 78.4837 35.2594 75.0019 31.8037C71.52 35.2594 68.0381 39.1631 64.6444 43.4362ZM75 101.25C80.1769 101.25 85.1325 101.023 89.8463 100.609C92.6944 96.6394 95.4488 92.4244 98.0438 88.0106C100.581 83.7 102.876 79.3369 104.925 75C102.876 70.6631 100.581 66.3019 98.0456 61.9931C95.4488 57.5775 92.6963 53.3644 89.8463 49.395C85.1344 48.9769 80.1787 48.75 75 48.75C69.8213 48.75 64.8638 48.9769 60.15 49.3931C57.2981 53.3625 54.5419 57.5775 51.945 61.9912C49.41 66.3019 47.115 70.665 45.0656 75.0019C47.115 79.3387 49.4081 83.7 51.9431 88.0087C54.54 92.4225 57.2944 96.6375 60.1444 100.607C64.86 101.023 69.8194 101.25 75 101.25ZM107.899 68.2744C110.008 63.195 111.754 58.2075 113.085 53.4375C108.298 52.1212 103.011 51.0337 97.2825 50.2369C99.21 53.1 101.087 56.0681 102.893 59.1394C104.681 62.175 106.344 65.2275 107.899 68.2744ZM42.0919 68.2762C43.6444 65.2294 45.3094 62.1769 47.0944 59.1394C48.9019 56.0681 50.7806 53.1019 52.71 50.2387C46.9819 51.0337 41.6944 52.1231 36.9075 53.4394C38.2388 58.2094 39.9844 63.195 42.0919 68.2762ZM118.478 94.9162C133.62 89.7862 142.5 82.2487 142.5 75C142.5 67.7512 133.62 60.2137 118.478 55.0837C116.691 61.4681 114.223 68.1769 111.128 74.9981C114.223 81.8212 116.691 88.53 118.478 94.9162ZM31.5187 94.9144C33.3037 88.5319 35.7694 81.8231 38.865 75.0037C35.7694 68.1825 33.3019 61.4719 31.5169 55.0875C16.3763 60.2175 7.5 67.7531 7.5 75C7.5 82.2487 16.3781 89.7844 31.5187 94.9144ZM97.2825 99.7631C103.011 98.9681 108.298 97.8806 113.085 96.5625C111.752 91.7925 110.006 86.805 107.899 81.7237C106.344 84.7706 104.679 87.8231 102.893 90.8606C101.087 93.9319 99.21 96.9 97.2825 99.7631ZM52.7044 99.7612C50.7769 96.8981 48.9 93.9319 47.0925 90.8625C45.3075 87.8269 43.6444 84.7762 42.0919 81.7312C39.9844 86.8087 38.2406 91.7944 36.9094 96.5625C41.6944 97.8769 46.98 98.9644 52.7044 99.7612ZM45.8888 135.006C52.8994 135.006 61.7906 130.187 70.9238 122.042C66.2119 117.375 61.5394 111.962 57.0713 105.941C49.3031 105.118 42.0675 103.764 35.55 101.974C33.5175 111.157 33.1519 119.272 34.7588 125.276C35.8425 129.326 37.755 132.152 40.44 133.676C41.9925 134.559 43.8281 135.006 45.8888 135.006ZM104.113 134.994C106.174 134.994 108.006 134.548 109.564 133.665C112.245 132.144 114.152 129.324 115.234 125.278C116.842 119.272 116.477 111.157 114.444 101.976C107.925 103.766 100.688 105.12 92.9175 105.943C88.455 111.962 83.7844 117.373 79.0781 122.04C88.2113 130.177 97.1025 134.992 104.113 134.994ZM75 118.2C78.4819 114.742 81.9619 110.837 85.3538 106.564C81.9769 106.764 78.6806 107.188 75.1556 107.188C71.6288 107.188 68.0175 106.764 64.6387 106.564C68.0325 110.839 71.5163 114.744 75 118.2ZM45.2175 7.63499C41.8444 7.63499 39.4331 8.26874 36.7369 9.79687C32.2388 12.3487 29.1337 16.7175 27.51 22.7831C25.71 29.5087 25.8656 38.3494 27.9525 48.435C10.1606 54.7294 0 64.3594 0 75C0 85.6425 10.1625 95.2706 27.9544 101.565C25.8675 111.651 25.7119 120.491 27.5138 127.217C29.1356 133.279 32.2388 137.647 36.7406 140.203C39.4406 141.733 42.6844 142.384 46.0556 142.384C54.4688 142.384 64.3425 137.631 75.0019 128.385C85.6594 137.621 95.7 142.492 104.111 142.494C107.484 142.494 110.563 141.72 113.263 140.19C117.757 137.642 120.859 133.279 122.481 127.221C124.282 120.493 124.127 111.652 122.04 101.569C139.836 95.2725 150 85.6425 150 75C150 64.3575 139.837 54.7275 122.042 48.4331C124.131 38.3456 124.284 29.505 122.482 22.7794C120.859 16.7212 117.756 12.3581 113.259 9.80999C110.561 8.28187 107.482 7.50562 104.111 7.50562C95.7019 7.50562 85.6631 12.3787 75.0037 21.6187C64.3425 12.3712 54.255 7.62937 45.84 7.62937L45.2175 7.63499ZM36.975 45.7069C36.1087 41.3494 35.5275 37.2656 35.4956 33.6844C35.4675 30.4594 35.91 27.6525 36.5644 25.2075C37.515 21.66 39.1294 19.2187 41.3625 17.9512C42.63 17.2312 44.175 16.7437 45.9056 16.7437C51.87 16.7437 59.7188 20.8275 68.1862 28.0575C64.0219 32.3194 59.9512 37.0931 56.0625 42.2794C49.3406 43.0294 42.9319 44.1787 36.975 45.7069ZM81.8213 28.0612C90.2869 20.8369 98.1544 16.8806 104.111 16.8806C105.844 16.8806 107.368 17.2462 108.637 17.9662C110.867 19.23 112.479 21.6656 113.428 25.2056C115.067 30.4894 114.855 37.5131 113.019 45.705C107.062 44.1787 100.656 43.0275 93.9356 42.2812C90.0488 37.0969 85.9819 32.3231 81.8213 28.0612ZM68.7619 41.3625C70.8169 38.925 72.9037 36.6187 75.0019 34.4662C77.1 36.6187 79.185 38.925 81.2381 41.3625C79.14 41.2875 77.0531 41.25 75 41.25C72.9469 41.25 70.8619 41.2875 68.7619 41.3625ZM61.1719 51.1875C65.6813 50.8144 70.3275 50.5481 75 50.5481C79.6706 50.5481 84.3169 50.8144 88.8244 51.1875C91.5094 54.9731 94.0669 58.9237 96.4294 62.9419C98.7206 66.8381 100.879 70.89 102.848 74.9981C100.877 79.1081 98.7188 83.1619 96.4275 87.0581C94.0631 91.0781 91.5075 95.0269 88.8225 98.8125C84.3169 99.1856 79.6706 99.6862 75 99.6862C70.3256 99.6862 65.6775 99.1837 61.1663 98.8106C58.4794 95.0269 55.9219 91.0762 53.5575 87.0562C51.2662 83.1619 49.11 79.11 47.1413 75C49.11 70.89 51.2681 66.8362 53.5594 62.94C55.9256 58.9219 58.485 54.9712 61.1719 51.1875ZM107.666 63.795C106.637 61.8862 105.581 60.0112 104.511 58.1887C103.442 56.3719 102.322 54.5475 101.164 52.7344C104.49 53.3006 107.698 53.9775 110.753 54.7594C109.877 57.6956 108.844 60.7181 107.666 63.795ZM39.24 54.7594C42.2944 53.9775 45.5025 53.3006 48.8288 52.7344C47.6681 54.5475 46.5488 56.3719 45.48 58.1869C44.4094 60.0094 43.3537 61.8844 42.3244 63.7931C41.1469 60.72 40.1156 57.6975 39.24 54.7594ZM113.184 74.9981C115.838 69.0694 118.035 63.2006 119.728 57.5119C132.671 62.235 140.625 68.8519 140.625 75C140.625 81.1481 132.671 87.765 119.728 92.4881C118.033 86.7975 115.838 80.9269 113.184 74.9981ZM30.2663 92.4862C17.3269 87.7631 9.375 81.1462 9.375 75C9.375 68.8537 17.3269 62.2369 30.2644 57.5137C31.9575 63.2044 34.1531 69.0731 36.8062 75.0019C34.155 80.9287 31.9594 86.7975 30.2663 92.4862ZM101.162 97.2675C102.321 95.4525 103.442 93.6281 104.509 91.8131C105.581 89.9906 106.637 88.1137 107.666 86.205C108.844 89.2819 109.875 92.3062 110.753 95.2444C107.696 96.0225 104.488 96.7012 101.162 97.2675ZM39.2419 95.2406C40.1175 92.3044 41.1488 89.2837 42.3244 86.2106C43.3519 88.1175 44.4075 89.9925 45.4781 91.8131C46.545 93.6281 47.6644 95.4506 48.825 97.2656C45.5006 96.6975 42.2944 96.0206 39.2419 95.2406ZM45.8888 133.131C44.1562 133.131 42.6338 132.765 41.3644 132.045C39.1331 130.777 37.5187 128.338 36.57 124.791C35.0119 119.456 35.1881 112.431 36.9788 104.291C42.9338 105.817 49.3387 106.969 56.0569 107.715C59.9475 112.901 64.0181 117.677 68.1844 121.942C59.7188 129.174 51.8494 133.132 45.8888 133.131ZM93.9337 107.719C100.654 106.971 107.061 105.821 113.018 104.295C115.089 113.182 115.253 120.266 113.424 124.792C112.478 128.334 110.867 130.77 108.639 132.032C107.368 132.752 105.846 133.118 104.115 133.118C98.1525 133.118 90.2812 129.161 81.8175 121.941C85.98 117.679 90.0469 112.905 93.9337 107.719ZM75 115.537C72.9 113.385 70.8112 111.077 68.7562 108.637C70.8562 108.712 72.945 108.75 75 108.75C77.0531 108.75 79.14 108.712 81.2381 108.637C79.185 111.077 77.0981 113.385 75 115.537Z" fill="#4E7AB5"/>
<defs>
<linearGradient id="paint0_linear_353_28" x1="75" y1="62.8125" x2="75" y2="87.1875" gradientUnits="userSpaceOnUse">
<stop stop-color="#078EAC"/>
<stop offset="1" stop-color="#BEEBF5"/>
</linearGradient>
<linearGradient id="paint1_linear_353_28" x1="75" y1="8.43188" x2="75" y2="141.568" gradientUnits="userSpaceOnUse">
<stop stop-color="#078EAC"/>
<stop offset="1" stop-color="#BEEBF5"/>
</linearGradient>
</defs>
</svg>
